# 3ds Max Wavefront OBJ Exporter v0.97b - (c)2007 guruware
# File Created: 03.05.2014 20:21:36

mtllib Claw.mtl

#
# object Box004
#

v  0.999999 -1.276153 -1.800430
v  0.999999 -1.159038 -0.851594
v  -0.000001 -1.159037 -0.851594
v  -0.000001 -1.117022 -0.511203
v  -1.000001 -1.159036 -0.851595
v  -1.000001 -1.276151 -1.800430
v  0.499999 -1.041922 0.097241
v  -0.000001 -1.041921 0.097241
v  -0.500001 -1.041921 0.097241
v  1.000001 0.861561 -1.558461
v  0.000001 1.020692 -0.269234
v  0.000001 1.042245 -0.094611
v  1.000001 0.978676 -0.609625
v  -0.999999 0.861562 -1.558462
v  -0.999999 0.978678 -0.609626
v  0.000001 1.095792 0.339210
v  0.500001 1.095792 0.339210
v  -0.499999 1.095793 0.339210
# 18 vertices

vn -0.000001 -0.993655 -0.112472
vn 0.000001 0.993655 0.112472
vn -0.805390 -0.072611 -0.588281
vn 0.000000 -0.122501 -0.992468
vn 0.805390 -0.072612 -0.588280
vn -1.000000 0.000001 -0.000000
vn -0.973249 0.028146 0.228022
vn -0.894427 0.054785 0.443845
vn -0.000000 0.122501 0.992468
vn 0.894427 0.054783 0.443846
vn 0.973249 0.028144 0.228023
vn 1.000000 -0.000001 0.000000
# 12 vertex normals

vt 1.000000 0.000000 0.000000
vt 1.000000 0.500000 0.000000
vt 0.500000 0.500000 0.000000
vt 0.500000 0.000000 0.000000
vt 0.000000 0.500000 0.000000
vt 0.000000 0.000000 0.000000
vt 1.000000 1.000000 0.000000
vt 0.500000 1.000000 0.000000
vt 0.000000 1.000000 0.000000
# 9 texture coords

g Box004
usemtl Material__2
s 2
f 1/1/1 2/2/1 3/3/1 
f 3/3/1 4/4/2 1/1/1 
f 4/4/2 3/3/1 5/5/1 
f 5/5/1 6/6/1 4/4/2 
f 2/2/1 7/7/1 8/8/1 
f 8/8/1 3/3/1 2/2/1 
f 3/3/1 8/8/1 9/9/1 
f 9/9/1 5/5/1 3/3/1 
s 4
f 10/6/2 11/4/2 12/3/2 
f 12/3/2 13/5/2 10/6/2 
f 11/4/2 14/1/2 15/2/2 
f 15/2/2 12/3/2 11/4/2 
f 13/5/2 12/3/2 16/8/2 
f 16/8/2 17/9/2 13/5/2 
f 12/3/2 15/2/2 18/7/2 
f 18/7/2 16/8/2 12/3/2 
s 8
f 1/6/3 4/4/4 11/8/4 
f 11/8/4 10/9/3 1/6/3 
f 4/4/4 6/1/5 14/7/5 
f 14/7/5 11/8/4 4/4/4 
s 16
f 6/6/6 5/4/7 15/8/7 
f 15/8/7 14/9/6 6/6/6 
f 5/4/7 9/1/8 18/7/8 
f 18/7/8 15/8/7 5/4/7 
s 32
f 9/6/9 8/4/9 16/8/9 
f 16/8/9 18/9/9 9/6/9 
f 8/4/9 7/1/9 17/7/9 
f 17/7/9 16/8/9 8/4/9 
s 64
f 7/6/10 2/4/11 13/8/11 
f 13/8/11 17/9/10 7/6/10 
f 2/4/11 1/1/12 10/7/12 
f 10/7/12 13/8/11 2/4/11 
# 32 faces

